<svg xmlns="http://www.w3.org/2000/svg" width="1290" height="432" viewBox="0 0 1290 432">
  <text x="50" y="81" fill="#d6e4f7" font-family="Arial, Helvetica, sans-serif" font-size="49" font-weight="700">Languages</text>
  <g transform="translate(48 146)">
    <rect x="0" y="0" width="1170" height="24" rx="12" fill="#347fce"/>
    <rect x="489" y="0" width="263" height="24" fill="#9a62ef"/>
    <rect x="754" y="0" width="190" height="24" fill="#f25043"/>
    <rect x="948" y="0" width="129" height="24" fill="#367aad"/>
    <rect x="1082" y="0" width="32" height="24" fill="#f25043"/>
    <rect x="1119" y="0" width="22" height="24" fill="#f7df62"/>
    <rect x="1146" y="0" width="24" height="24" fill="#d7d7d2"/>
    <line x1="485" y1="0" x2="485" y2="24" stroke="#111827" stroke-width="5"/>
    <line x1="751" y1="0" x2="751" y2="24" stroke="#111827" stroke-width="5"/>
    <line x1="945" y1="0" x2="945" y2="24" stroke="#111827" stroke-width="5"/>
    <line x1="1078" y1="0" x2="1078" y2="24" stroke="#111827" stroke-width="5"/>
    <line x1="1116" y1="0" x2="1116" y2="24" stroke="#111827" stroke-width="5"/>
    <line x1="1143" y1="0" x2="1143" y2="24" stroke="#111827" stroke-width="5"/>
  </g>
  <g font-family="Arial, Helvetica, sans-serif" font-size="38">
    <circle cx="72" cy="222" r="12" fill="#5ea0d8"/>
    <text x="120" y="234" fill="#d6e4f7" font-weight="700">TypeScript</text>
    <text x="326" y="234" fill="#b7b3b1">42.6%</text>
    <circle cx="519" cy="222" r="12" fill="#9a62ef"/>
    <text x="566" y="234" fill="#d6e4f7" font-weight="700">Kotlin</text>
    <text x="681" y="234" fill="#b7b3b1">22.5%</text>
    <circle cx="873" cy="222" r="12" fill="#f25043"/>
    <text x="920" y="234" fill="#d6e4f7" font-weight="700">Swift</text>
    <text x="1041" y="234" fill="#b7b3b1">16.4%</text>
    <circle cx="72" cy="291" r="12" fill="#79acd4"/>
    <text x="120" y="303" fill="#d6e4f7" font-weight="700">Python</text>
    <text x="262" y="303" fill="#b7b3b1">11.2%</text>
    <circle cx="438" cy="291" r="12" fill="#f25043"/>
    <text x="487" y="303" fill="#d6e4f7" font-weight="700">HTML</text>
    <text x="604" y="303" fill="#b7b3b1">2.8%</text>
    <circle cx="774" cy="291" r="12" fill="#f7df62"/>
    <text x="820" y="303" fill="#d6e4f7" font-weight="700">JavaScript</text>
    <text x="1022" y="303" fill="#b7b3b1">1.6%</text>
    <circle cx="72" cy="360" r="12" fill="#d7d7d2"/>
    <text x="120" y="372" fill="#d6e4f7" font-weight="700">Other</text>
    <text x="234" y="372" fill="#b7b3b1">2.9%</text>
  </g>
</svg>
